<svg xmlns="http://www.w3.org/2000/svg" data-name="Layer 1" viewBox="0 0 512 512" id="lord-ganesha"><path fill="#ffc166" d="M202.462 499.792c-9.097-10.523 8.828-32.833-2.607-47.783-4.122-5.389-9.143-6.01-8.687-8.688.919-5.402 22.78-11.23 37.791-1.303 10.84 7.17 13.257 19.347 13.9 22.588.49 2.468 4.842 24.39-10.425 34.751-9.207 6.25-24.056 7.279-29.972.435Z"></path><path fill="#f66" d="M215.6 456.68c-5.49 16.43-29.43 23.9-53.76 25.2a141.956 141.956 0 0 1-31.93-1.85c-14.46-2.61-52.45-9.49-66.46-43-11.03-26.38-4.45-62.68 17.59-76.24 30.04-18.48 72.96 15.08 89.92 28.35a240.316 240.316 0 0 1 22.85 19.91c13.78 13.89 27 32.04 21.79 47.63Z"></path><path fill="#ffc166" d="M309.538 499.792c9.097-10.523-8.828-32.833 2.607-47.783 4.122-5.389 9.143-6.01 8.687-8.688-.919-5.402-22.78-11.23-37.791-1.303-10.84 7.17-13.257 19.347-13.9 22.588-.49 2.468-4.842 24.39 10.425 34.751 9.207 6.25 24.056 7.279 29.972.435Z"></path><path fill="#f66" d="M448.55 437.03c-14.01 33.51-52 40.39-66.46 43a141.596 141.596 0 0 1-31.89 1.85c-24.34-1.29-48.3-8.76-53.8-25.2-5.56-16.62 9.84-36.16 24.53-50.33a252.135 252.135 0 0 1 20.11-17.21c16.96-13.27 59.88-46.83 89.92-28.35 22.04 13.56 28.62 49.86 17.59 76.24Z"></path><path fill="#ff4e4e" d="M430.96 360.79c-10.937-6.729-23.582-6.554-36.06-2.977a35.693 35.693 0 0 1 6.06 2.977c22.04 13.56 28.62 49.86 17.59 76.24-14.01 33.51-52 40.39-66.46 43-2.906.526-5.976.945-9.137 1.274 2.4.254 4.821.447 7.247.576a141.596 141.596 0 0 0 31.89-1.85c14.46-2.61 52.45-9.49 66.46-43 11.03-26.38 4.45-62.68-17.59-76.24Z"></path><path fill="#ffe966" d="M215.6 456.68c-5.49 16.43-29.43 23.9-53.76 25.2l-.04-.04a51.275 51.275 0 0 0 13.24-56.8l18.77-15.99c13.78 13.89 27 32.04 21.79 47.63Z"></path><path fill="#ffe236" d="m193.81 409.05-8.366 7.127c10.974 12.631 19.514 27.462 15.156 40.503-4.188 12.532-19.114 19.847-36.756 23.191a49.955 49.955 0 0 1-2.044 1.969l.04.04c24.33-1.3 48.27-8.77 53.76-25.2 5.21-15.59-8.01-33.74-21.79-47.63Z"></path><path fill="#ffe966" d="M350.2 481.84v.04c-24.34-1.29-48.3-8.76-53.8-25.2-5.56-16.62 9.84-36.16 24.53-50.33l16.03 18.69a51.275 51.275 0 0 0 13.24 56.8Z"></path><circle cx="256" cy="27.108" r="19.608" fill="#ffe966"></circle><path fill="#ffe236" d="M256 7.5a19.538 19.538 0 0 0-7.5 1.492 19.606 19.606 0 0 1 0 36.232A19.608 19.608 0 1 0 256 7.5Z"></path><path fill="#ffc166" d="M308.43 430.13q-22.38.9-45.91 1.03-30.165.15-58.53-1.01a101.352 101.352 0 0 1-94.22-125.96c.15-.6.3-1.2.45-1.79a101.34 101.34 0 0 1 36.11-55.38v-.01a101.317 101.317 0 0 1 50.56-20.66L256 219.5l59.35 6.87a101.391 101.391 0 0 1 86.84 76.75l.43 1.76c15.11 62.11-30.32 122.69-94.19 125.25Z"></path><path fill="#ffe966" d="M324.5 143.5h-137V94.303a31.233 31.233 0 0 1 27.536-31.136 82.486 82.486 0 0 0 12.628-2.428A83.468 83.468 0 0 0 256 46.716a69.294 69.294 0 0 0 25.42 15 67.735 67.735 0 0 0 14.508 3.04A31.467 31.467 0 0 1 324.5 95.997Z"></path><path fill="#ffe236" d="M295.928 64.756a67.725 67.725 0 0 1-14.508-3.04 69.294 69.294 0 0 1-25.42-15 84.064 84.064 0 0 1-15.678 9.401 68.445 68.445 0 0 0 17.953 8.991 67.74 67.74 0 0 0 14.508 3.04 31.467 31.467 0 0 1 28.572 31.241V143.5H324.5V95.997a31.467 31.467 0 0 0-28.572-31.241Z"></path><path fill="#ffc166" d="M476.845 369.964a5.9 5.9 0 0 1 3.965 5.573v10.783a21.048 21.048 0 0 1-22.44 21l-9.73-.65-15.25-1.01-30.47-2.02a32.43 32.43 0 0 1-25.92-16.1l-9.38-16.18 37.533-51.078 5.327 13.978a32.48 32.48 0 0 0 19.85 19.57l6.95 2.41 14.28 4.95Z"></path><path fill="#ffb74e" d="m476.845 369.964-25.285-8.774-14.28-4.95-6.95-2.41a32.48 32.48 0 0 1-19.85-19.57l-5.327-13.978-9.877 13.442.204.536a32.48 32.48 0 0 0 19.85 19.57l6.95 2.41 14.28 4.95 25.285 8.774a5.899 5.899 0 0 1 3.965 5.573v10.783a21.053 21.053 0 0 1-15.979 20.43l8.539.57a21.048 21.048 0 0 0 22.44-21v-10.783a5.899 5.899 0 0 0-3.965-5.573Z"></path><path fill="#ffb74e" d="M308.43 430.13q-22.38.9-45.91 1.03-11.1.06-21.96-.07 19.32-.225 37.87-.96c63.87-2.56 109.3-63.14 94.19-125.25l-.43-1.76a101.387 101.387 0 0 0-86.84-76.75L241 221.24l15-1.74 59.35 6.87a101.391 101.391 0 0 1 86.84 76.75l.43 1.76c15.11 62.11-30.32 122.69-94.19 125.25Z"></path><path fill="#ffe236" d="M365.71 246.89a56.707 56.707 0 0 1-10.62 19.77 101.403 101.403 0 0 0-24.13-23.23 38.961 38.961 0 0 0 5.43-12.31 101.103 101.103 0 0 1 29.32 15.77Z"></path><path fill="#ffe966" d="M365.71 246.89a56.707 56.707 0 0 1-10.62 19.77c-18.58 23.02-55.98 38.73-99.09 38.73-54.51 0-99.9-25.13-109.67-58.37v-.01a101.384 101.384 0 0 1 29.29-15.84c6.05 25.05 39.73 44.22 80.38 44.22 33.7 0 62.61-13.18 74.96-31.96a38.961 38.961 0 0 0 5.43-12.31 101.103 101.103 0 0 1 29.32 15.77Z"></path><path fill="#ffe236" d="M365.71 246.89a56.707 56.707 0 0 1-10.62 19.77 101.403 101.403 0 0 0-24.13-23.23 38.961 38.961 0 0 0 5.43-12.31 101.103 101.103 0 0 1 29.32 15.77Z"></path><path fill="#ffcd85" d="M319.069 137.605h73.336a19.005 19.005 0 0 1 16.36 28.675l-40.8 69.023a18.74 18.74 0 0 1-26.093 6.338l-35.5-22.274Z"></path><path fill="#ffc570" d="M392.405 137.604h-15a19.005 19.005 0 0 1 16.36 28.676l-40.8 69.023a18.63 18.63 0 0 1-8.623 7.62 18.728 18.728 0 0 0 23.623-7.62l40.8-69.023a19.005 19.005 0 0 0-16.36-28.676Z"></path><path fill="#ffcd85" d="m205.63 219.37-13.44 8.43-22.06 13.84a18.743 18.743 0 0 1-26.1-6.34l-40.8-69.02a19.014 19.014 0 0 1 16.37-28.68h73.33Z"></path><path fill="#ffc570" d="m205.63 219.37-13.44 8.43a42.544 42.544 0 0 1-19.69-35.91V137.6h20.43Z"></path><path fill="#ffcd85" d="m341.833 300.044-46.355-8.514a16.026 16.026 0 0 1-13.131-15.762v-25.284a19.405 19.405 0 0 1 13.34-18.277 42.62 42.62 0 0 0 28.813-40.321V128.5a72.467 72.467 0 0 0-29.397-4.232c-18.668 1.314-22.697 9.432-40.724 10.1-13.333.494-15.324-3.792-35.51-5.868a153.695 153.695 0 0 0-31.369 0v63.386a42.614 42.614 0 0 0 26.578 39.483 19.36 19.36 0 0 1 12.226 17.88v39.154a42.482 42.482 0 0 0 42.482 42.482h54.93a24.835 24.835 0 0 1 14.707 4.823l17.268 12.69 3.558-6.73a10.514 10.514 0 0 1 8.621-5.578l10.006-.641-14.301-21.182a33.544 33.544 0 0 0-21.742-14.223Z"></path><path fill="#ffc97a" d="M203.868 128.5c20.187 2.076 22.178 6.362 35.511 5.868a53.393 53.393 0 0 0 5.924-.54c-6.745-1.167-11.826-3.826-26.435-5.328a153.536 153.536 0 0 0-23.206-.617c2.624.128 5.36.324 8.206.617Z"></path><path fill="#ffc570" d="M363.575 314.267a33.544 33.544 0 0 0-21.742-14.223l-46.355-8.514a16.026 16.026 0 0 1-13.131-15.762v-25.284a19.405 19.405 0 0 1 13.34-18.277 42.62 42.62 0 0 0 28.813-40.321V128.5a72.467 72.467 0 0 0-29.397-4.232c-.946.067-1.846.155-2.721.255A75.612 75.612 0 0 1 309.5 128.5v63.386a42.62 42.62 0 0 1-28.814 40.32 19.405 19.405 0 0 0-13.34 18.278v25.284a16.026 16.026 0 0 0 13.132 15.762l46.355 8.514a33.544 33.544 0 0 1 21.742 14.223l14.301 21.182-10.006.641a10.515 10.515 0 0 0-7.91 4.421l10.73 7.886 3.559-6.729a10.514 10.514 0 0 1 8.621-5.578l10.006-.641Z"></path><circle cx="468.119" cy="338.403" r="27" fill="#ff8e66"></circle><path fill="#ff7c4e" d="M468.119 311.403a26.992 26.992 0 0 0-7.5 1.064 26.999 26.999 0 0 1 0 51.873 27 27 0 1 0 7.5-52.937Z"></path><path fill="#ffc97a" d="M133.233 341.398v-27.474a11.23 11.23 0 0 0-11.23-11.23 11.23 11.23 0 0 0-11.23 11.23v-9.033a25.895 25.895 0 0 0-25.895-25.894 25.895 25.895 0 0 0-25.895 25.894v41.244a30.808 30.808 0 0 0 30.808 30.808h12.634a30.808 30.808 0 0 0 30.808-30.808Z"></path><path fill="#313440" d="M256 382.625a7.5 7.5 0 1 0 7.5 7.5 7.5 7.5 0 0 0-7.5-7.5Zm246.62-44.597a34.5 34.5 0 1 0-67.79 9.044l-2.037-.707a24.839 24.839 0 0 1-15.264-15.04l-4.25-11.694a7.51 7.51 0 0 0-.772-1.532 109.939 109.939 0 0 0-2.6-15.367l-.428-1.76a108.957 108.957 0 0 0-37.363-58.924 26.672 26.672 0 0 0 2.305-3.303l40.8-69.023a26.505 26.505 0 0 0-22.816-39.993L332 129.726V95.622a38.868 38.868 0 0 0-35.343-38.706 60.503 60.503 0 0 1-12.904-2.702 60.68 60.68 0 0 1-12.01-5.433 27.11 27.11 0 1 0-32.547-.8 75.243 75.243 0 0 1-13.518 5.15 75.31 75.31 0 0 1-11.48 2.209A38.658 38.658 0 0 0 180 93.928v35.801h-60.405a26.505 26.505 0 0 0-22.817 39.993l40.801 69.023a26.653 26.653 0 0 0 2.382 3.394 108.922 108.922 0 0 0-30.597 39.7 33.375 33.375 0 0 0-57.88 22.678v41.243a38.134 38.134 0 0 0 9.346 25.032c-11.523 19.033-13.487 46.783-4.3 68.756 15.593 37.297 56.608 44.701 72.044 47.487a146.187 146.187 0 0 0 25.59 2.178c13.178 0 27.003-1.664 38.871-5.603-1.267 7.254-1.433 14.72 3.75 20.71 4.398 5.087 11.261 7.298 18.49 7.298a39.228 39.228 0 0 0 21.366-6.427c8.191-5.557 13.16-14.459 14.37-25.744a56.775 56.775 0 0 0-.793-16.667c-2.45-12.39-8.147-20.026-13.486-24.634 6.47.095 12.938.159 19.383.159q3.227 0 6.447-.016 6.324-.031 12.692-.13c-5.338 4.613-11.024 12.244-13.47 24.613a56.775 56.775 0 0 0-.796 16.675c1.21 11.285 6.18 20.187 14.368 25.742a39.241 39.241 0 0 0 21.373 6.43c7.226 0 14.087-2.212 18.482-7.296 5.186-5.992 5.02-13.458 3.754-20.712 11.869 3.94 25.693 5.602 38.873 5.602a146.227 146.227 0 0 0 25.584-2.177c15.44-2.787 56.455-10.191 72.048-47.487a77.3 77.3 0 0 0 5.665-25.095 28.544 28.544 0 0 0 27.177-28.512v-14.975a7.473 7.473 0 0 0-1.254-4.123 34.491 34.491 0 0 0 15.561-28.816ZM411.03 349.25a39.84 39.84 0 0 0 16.844 11.288l6.293 2.184a58.15 58.15 0 0 0-3.127 11.744c-.98 6.284-.017 15.899 1.063 23.22l-28.685-1.902a24.943 24.943 0 0 1-11.079-3.466 108.801 108.801 0 0 0 18.691-43.068ZM332 191.511v-46.785l60.405.003a11.506 11.506 0 0 1 9.905 17.36l-40.801 69.023a11.24 11.24 0 0 1-15.65 3.802L322.8 220.447A50.059 50.059 0 0 0 332 191.51Zm23.845 59.804c-6.947 14.383-22.02 27.01-42.595 35.478l-16.417-3.015a8.52 8.52 0 0 1-6.582-5.813c20.947-5.834 37.793-16.903 46.951-30.775l.684.43a26.03 26.03 0 0 0 13.886 4.026 26.31 26.31 0 0 0 4.073-.33Zm-31.34-12.091c-6.66 9.989-18.998 18.242-34.658 23.222v-12.337a11.96 11.96 0 0 1 8.266-11.18 50.015 50.015 0 0 0 14.029-7.463ZM256 14.625a12.108 12.108 0 1 1-12.108 12.108A12.122 12.122 0 0 1 256 14.625Zm-61 79.303a23.669 23.669 0 0 1 20.876-23.682 90.528 90.528 0 0 0 13.774-2.65 90.267 90.267 0 0 0 25.92-11.761 75.795 75.795 0 0 0 23.519 12.636 75.56 75.56 0 0 0 16.11 3.375A23.92 23.92 0 0 1 317 95.622v22.56a77.364 77.364 0 0 0-22.423-1.77c-10.39.73-16.906 3.385-22.656 5.726-5.364 2.184-9.996 4.07-17.82 4.36-5.84.224-8.764-.577-13.61-1.894a116.126 116.126 0 0 0-20.855-3.94 161.275 161.275 0 0 0-24.636-.632Zm0 41.125a146.35 146.35 0 0 1 23.1.533 101.55 101.55 0 0 1 18.458 3.493 53.3 53.3 0 0 0 18.098 2.41c10.472-.39 17.086-3.083 22.922-5.459 5.168-2.104 10.05-4.092 18.052-4.655a63.293 63.293 0 0 1 21.37 2.24v57.896a35.108 35.108 0 0 1-23.74 33.224 26.955 26.955 0 0 0-18.413 25.374v25.284a23.523 23.523 0 0 0 19.276 23.14l46.356 8.513a26.202 26.202 0 0 1 16.88 11.042l7.137 10.571a18.168 18.168 0 0 0-11.344 8.19l-10.287-7.559a32.117 32.117 0 0 0-19.15-6.28h-54.929a35.02 35.02 0 0 1-34.981-34.982v-39.154a26.793 26.793 0 0 0-16.904-24.828 35.237 35.237 0 0 1-10.804-6.9 7.426 7.426 0 0 0-.683-.672A34.968 34.968 0 0 1 195 191.511Zm24.084 158.243c-30.272-7.172-53.702-22.81-62.939-41.982a26.312 26.312 0 0 0 4.083.332 26.043 26.043 0 0 0 13.885-4.026l.671-.42c8.706 13.266 24.252 23.86 44.02 29.913v10.915a50.297 50.297 0 0 0 .28 5.268Zm-19.24-61.818a50.503 50.503 0 0 0 11.41 6.464 11.854 11.854 0 0 1 7.55 10.932v12.425c-14.025-5.068-25.142-12.897-31.303-22.078Zm-90.154-69.39a11.506 11.506 0 0 1 9.905-17.359H180v46.782a50.013 50.013 0 0 0 9.171 28.955l-23.03 14.448a11.24 11.24 0 0 1-15.65-3.802ZM66.483 304.518a18.395 18.395 0 0 1 36.79 0v9.032a7.5 7.5 0 0 0 15 0 3.73 3.73 0 1 1 7.46 0v32.21a23.335 23.335 0 0 1-23.308 23.31H89.79a23.335 23.335 0 0 1-23.308-23.31Zm103.474 148.989a44.197 44.197 0 0 1-11.322 20.584 133.41 133.41 0 0 1-27.393-1.816c-13.244-2.39-48.426-8.742-60.872-38.512-7.084-16.943-5.872-38.766 2.414-53.69a38.062 38.062 0 0 0 17.007 3.996h12.634a38.167 38.167 0 0 0 11.078-1.64 108.913 108.913 0 0 0 55.511 47.684 44.168 44.168 0 0 1 .943 23.394Zm29.339 10.876c-5.478 3.435-12.63 5.877-20.502 7.465a58.147 58.147 0 0 0 6.666-36.857 108.882 108.882 0 0 0 18.231 2.276c.83.033 1.667.055 2.5.087.314.664.615 1.324.883 1.974l.02.05c2.292 5.57 2.761 10.463 1.39 14.557-1.31 3.931-4.401 7.446-9.188 10.448Zm28.919 28.4c-5.813 3.948-16.804 5.52-20.084 1.725-1.796-2.075-.386-8.428.858-14.031.384-1.732.772-3.506 1.123-5.315 6.24-4.561 10.473-10.093 12.599-16.474a30.518 30.518 0 0 0 1.51-11.155c.2.123.407.24.601.37 5.469 3.616 9.062 9.601 10.683 17.796.647 3.258 3.34 19.871-7.29 27.083Zm34.272-69.493c-19.316.099-38.898-.245-58.2-1.012a93.807 93.807 0 0 1-77.56-46.928 38.609 38.609 0 0 0 7.77-8.677 66.335 66.335 0 0 0 12.874-6.48 67.125 67.125 0 0 0 21.29-22.386 7.5 7.5 0 0 0-12.96-7.555 52.117 52.117 0 0 1-14.988 16.312c.005-.268.02-.534.02-.803v-32.211a18.752 18.752 0 0 0-18.73-18.73c-.603 0-1.197.038-1.785.094a93.924 93.924 0 0 1 23.124-35.744c12.583 24.32 42.65 43.427 80.358 50.419a50.043 50.043 0 0 0 45.086 28.422h54.93a17.218 17.218 0 0 1 10.266 3.367l17.267 12.69a7.5 7.5 0 0 0 11.071-2.539l3.559-6.73a3.033 3.033 0 0 1 2.47-1.598l10.006-.641a7.5 7.5 0 0 0 5.737-11.681l-14.301-21.184a41.29 41.29 0 0 0-26.603-17.402l-5.72-1.05c14.2-8.832 24.97-19.888 31.273-32.195a93.949 93.949 0 0 1 26.163 45.47l.429 1.761a93.813 93.813 0 0 1-87.204 115.983c-15.153.607-30.51.953-45.642 1.028Zm41.378 71.222c-3.28 3.794-14.27 2.216-20.084-1.732-10.627-7.21-7.933-23.823-7.284-27.089 1.62-8.187 5.212-14.172 10.688-17.794.192-.127.396-.243.593-.364a30.481 30.481 0 0 0 1.507 11.144c2.13 6.39 6.363 11.924 12.603 16.485.351 1.81.739 3.583 1.123 5.315 1.244 5.603 2.654 11.956.854 14.035Zm8.838-30.13c-4.786-3.001-7.877-6.516-9.191-10.458-1.367-4.082-.898-8.973 1.397-14.554l.017-.044c.266-.646.565-1.306.88-1.972.973-.037 1.952-.065 2.923-.104a109.18 109.18 0 0 0 17.8-2.186 58.143 58.143 0 0 0 6.676 36.783c-7.87-1.588-15.024-4.03-20.502-7.465Zm128.927-30.618c-12.446 29.77-47.628 36.12-60.876 38.512a133.302 133.302 0 0 1-27.389 1.815 43.712 43.712 0 0 1-10.431-43.814 108.012 108.012 0 0 0 39.717-26.328 39.985 39.985 0 0 0 19.777 6.802l43.736 2.9a62.15 62.15 0 0 1-4.534 20.113Zm31.682-47.82a13.548 13.548 0 0 1-14.445 13.517l-11.447-.76c-1.152-6.895-2.325-17.011-1.559-21.923a43.172 43.172 0 0 1 2.48-9.139l7.05 2.447q1.446.576 2.953 1.024l14.968 5.194Zm-5.193-28.415a19.397 19.397 0 0 1-5.381-.772l-2.211-.767a19.498 19.498 0 1 1 7.592 1.54ZM258.25 105.625a7.5 7.5 0 1 0-7.5-7.5 7.5 7.5 0 0 0 7.5 7.5Zm-32.25 67a7.5 7.5 0 1 0-7.5-7.5 7.5 7.5 0 0 0 7.5 7.5Zm-2.25-67a7.5 7.5 0 1 0-7.5-7.5 7.5 7.5 0 0 0 7.5 7.5Zm62.25 67a7.5 7.5 0 1 0-7.5-7.5 7.5 7.5 0 0 0 7.5 7.5Zm2.25-67a7.5 7.5 0 1 0-7.5-7.5 7.5 7.5 0 0 0 7.5 7.5Z"></path></svg>